<svg width="20" height="20" viewBox="0 0 20 20" fill="none" xmlns="http://www.w3.org/2000/svg">
<path d="M10.9658 1.03714L13.2215 5.60786C13.3784 5.92576 13.6817 6.14603 14.0325 6.19693L19.0768 6.92993C19.9604 7.05842 20.3129 8.14395 19.6737 8.76681L16.0238 12.3246C15.7701 12.572 15.6541 12.9287 15.7142 13.2779L16.5757 18.3016C16.7267 19.1815 15.8031 19.8523 15.0129 19.4372L10.5015 17.0655C10.1877 16.9007 9.81267 16.9007 9.49895 17.0655L4.98747 19.4372C4.19732 19.8527 3.27367 19.1815 3.42469 18.3016L4.28618 13.2779C4.34626 12.9287 4.23028 12.572 3.97663 12.3246L0.326648 8.76681C-0.312484 8.14353 0.0400399 7.058 0.923644 6.92993L5.96787 6.19693C6.31872 6.14603 6.62202 5.92576 6.77888 5.60786L9.03462 1.03714C9.42928 0.236561 10.5707 0.236561 10.9658 1.03714Z" fill="#ED8A19"/>
</svg>
